<?xml version="1.0" encoding="UTF-8"?>
<svg version="1.1" xmlns="http://www.w3.org/2000/svg" width="512" height="512">
<path d="M0 0 C2.05271907 -0.00542721 4.10543423 -0.01255322 6.15814209 -0.02124023 C11.70773707 -0.03940513 17.25703309 -0.03243427 22.806633 -0.01972389 C28.62842077 -0.00956077 34.45018382 -0.01899875 40.27197266 -0.02526855 C50.04659598 -0.03253532 59.82109821 -0.02298271 69.59570312 -0.00390625 C80.87873604 0.01786053 92.16147978 0.01080848 103.44450569 -0.01121187 C113.15100127 -0.02939351 122.85741005 -0.03191067 132.56391716 -0.0214572 C138.35281994 -0.01523748 144.14158702 -0.01434471 149.93048096 -0.02760315 C155.37418328 -0.03920123 160.8175146 -0.03106358 166.26117706 -0.00802612 C168.25290564 -0.00276016 170.2446657 -0.00421637 172.23638153 -0.01307678 C186.87930782 -0.07218669 198.54333907 0.91630268 209.6484375 11.51757812 C220.25967027 22.6331071 221.23875026 34.59264557 221.15637207 49.24267578 C221.16098628 51.03449827 221.16734269 52.82631697 221.17528105 54.61812782 C221.19192597 59.5204252 221.18375002 64.42240972 221.17133617 69.32470798 C221.16226819 74.6199559 221.17626409 79.91515086 221.18725586 85.21038818 C221.20502697 95.57527395 221.20120734 105.94004374 221.1896053 116.30493402 C221.18056573 124.72993069 221.17934925 133.15489489 221.18370056 141.57989502 C221.18431349 142.77973546 221.18492643 143.97957589 221.18555793 145.21577513 C221.18683685 147.65335322 221.18813371 150.09093131 221.1894483 152.52850938 C221.20084998 175.37686003 221.18774683 198.22514645 221.16624683 221.07348657 C221.14837624 240.67141904 221.15148047 260.26925674 221.16992188 279.8671875 C221.19133584 302.63469948 221.19975138 325.40215518 221.18747282 348.16967583 C221.18619865 350.59820429 221.18494116 353.02673275 221.18370056 355.45526123 C221.18277491 357.24750797 221.18277491 357.24750797 221.18183056 359.07596171 C221.17837924 367.48923319 221.1842013 375.90246892 221.19361877 384.31573486 C221.20484595 394.57100123 221.20178349 404.82614516 221.1804958 415.08139753 C221.16999517 420.31214352 221.16584686 425.54268547 221.17909241 430.77342987 C221.19104238 435.56507093 221.18441073 440.3563195 221.1631822 445.14792514 C221.15872719 446.87792473 221.16095756 448.60795771 221.17068535 450.33793569 C221.2422816 464.13252674 219.52323686 475.17348137 209.6484375 485.51757812 C197.69698662 496.92680817 184.91212309 497.10462274 169.296875 497.03515625 C167.24415593 497.04058346 165.19144077 497.04770947 163.13873291 497.05639648 C157.58913793 497.07456138 152.03984191 497.06759052 146.490242 497.05488014 C140.66845423 497.04471702 134.84669118 497.054155 129.02490234 497.0604248 C119.25027902 497.06769157 109.47577679 497.05813896 99.70117188 497.0390625 C88.41813896 497.01729572 77.13539522 497.02434777 65.85236931 497.04636812 C56.14587373 497.06454976 46.43946495 497.06706692 36.73295784 497.05661345 C30.94405506 497.05039373 25.15528798 497.04950096 19.36639404 497.0627594 C13.92269172 497.07435748 8.4793604 497.06621983 3.03569794 497.04318237 C1.04396936 497.03791641 -0.9477907 497.03937262 -2.93950653 497.04823303 C-26.65419059 497.14396341 -26.65419059 497.14396341 -36.2265625 489.08007812 C-36.90460938 488.52449219 -37.58265625 487.96890625 -38.28125 487.39648438 C-40.72121311 485.18210276 -43.04015673 482.86522545 -45.3515625 480.51757812 C-46.09019531 481.10925781 -46.82882813 481.7009375 -47.58984375 482.31054688 C-61.78391126 493.36640886 -74.29020572 496.82146753 -92.15917969 496.80810547 C-93.75976371 496.81409643 -95.36034485 496.82090328 -96.96092224 496.82846069 C-101.28910704 496.84605978 -105.61721268 496.8508132 -109.9454298 496.85209227 C-112.65045934 496.85351669 -115.35546891 496.85779157 -118.06049347 496.8630867 C-127.49916355 496.88155942 -136.93777728 496.88975986 -146.37646484 496.88818359 C-155.17441488 496.88697956 -163.97212064 496.90814007 -172.7700088 496.93967092 C-180.32941745 496.96579799 -187.88874604 496.97655255 -195.44819951 496.97527277 C-199.96096358 496.97476254 -204.47350988 496.98048101 -208.98622894 497.00162888 C-213.22497121 497.02095387 -217.46328644 497.02117548 -221.70204353 497.00659561 C-223.25810684 497.00449997 -224.81419651 497.00925321 -226.37021446 497.02131653 C-228.49273775 497.03670823 -230.61377677 497.02750405 -232.73626709 497.01205444 C-234.51817759 497.01368875 -234.51817759 497.01368875 -236.33608627 497.01535606 C-239.3515625 496.51757812 -239.3515625 496.51757812 -241.73327255 494.79978371 C-243.63962729 492.11133259 -243.85386981 490.77662379 -243.85949707 487.5078125 C-243.87641602 485.99368774 -243.87641602 485.99368774 -243.89367676 484.44897461 C-243.88153137 482.7968396 -243.88153137 482.7968396 -243.86914062 481.11132812 C-243.8761499 479.94674072 -243.88315918 478.78215332 -243.89038086 477.58227539 C-243.90800682 473.72713479 -243.89632091 469.87272638 -243.8828125 466.01757812 C-243.88550607 463.3424386 -243.88938103 460.66732143 -243.89440918 457.9921875 C-243.90168447 452.38338263 -243.89210121 446.7747885 -243.87304688 441.16601562 C-243.85127807 434.68339906 -243.85832955 428.20128571 -243.8803525 421.71868134 C-243.89851009 416.15081223 -243.90106316 410.58309453 -243.89059782 405.01520538 C-243.88436472 401.69062143 -243.88509448 398.36632561 -243.89674377 395.04174805 C-243.90687998 391.33542655 -243.89144735 387.63007705 -243.86914062 383.92382812 C-243.87723755 382.82240479 -243.88533447 381.72098145 -243.89367676 380.58618164 C-243.88239746 379.57676514 -243.87111816 378.56734863 -243.85949707 377.52734375 C-243.85798897 376.65130493 -243.85648087 375.77526611 -243.85492706 374.87268066 C-243.17958201 371.71292932 -241.83325619 370.52380211 -239.3515625 368.51757812 C-236.17871094 367.484375 -236.17871094 367.484375 -232.4609375 366.73632812 C-231.46577118 366.52598938 -231.46577118 366.52598938 -230.45050049 366.31140137 C-228.33685351 365.86582878 -226.21996662 365.4399075 -224.1015625 365.01757812 C-199.82092831 360.12792222 -191.69621203 348.39689648 -178.2890625 328.39257812 C-149.74423967 286.03574425 -149.74423967 286.03574425 -131.66015625 274.33789062 C-126.91545427 271.25982985 -122.28913681 268.02167717 -117.6640625 264.76757812 C-116.40553467 263.88428833 -116.40553467 263.88428833 -115.12158203 262.9831543 C-111.65586143 260.5492508 -108.19295425 258.11140019 -104.73291016 255.66943359 C-87.55088044 243.54339841 -87.55088044 243.54339841 -79.4765625 238.26757812 C-78.42726562 237.58179688 -77.37796875 236.89601562 -76.296875 236.18945312 C-70.46108436 232.87682926 -65.52926204 232.23853636 -58.9765625 232.39257812 C-58.24050781 232.40160156 -57.50445312 232.410625 -56.74609375 232.41992188 C-54.9477737 232.44327668 -53.14962339 232.47913977 -51.3515625 232.51757812 C-51.35524967 231.49181766 -51.35893684 230.46605719 -51.36273575 229.40921307 C-51.45160931 204.42820178 -51.51730128 179.44721104 -51.55881119 154.46607494 C-51.57941961 142.38528505 -51.60750745 130.30459972 -51.65332031 118.22387695 C-51.69324059 107.69197576 -51.71900781 97.16015031 -51.72791648 86.62817556 C-51.73312239 81.05368471 -51.74532258 75.47941052 -51.77448273 69.90498924 C-51.80173372 64.65273012 -51.8099879 59.40077587 -51.80399323 54.14845276 C-51.80508913 52.22605034 -51.81298502 50.30363721 -51.8283844 48.38129616 C-51.93843423 33.92849045 -50.80648154 22.46936461 -40.3515625 11.51757812 C-28.40011162 0.10834808 -15.61524809 -0.06946649 0 0 Z M-62.2265625 317.26757812 C-63.15082031 317.80640625 -64.07507813 318.34523438 -65.02734375 318.90039062 C-65.91550781 319.42890625 -66.80367187 319.95742188 -67.71875 320.50195312 C-68.94247314 321.22463379 -68.94247314 321.22463379 -70.19091797 321.96191406 C-72.56316252 323.66993014 -73.82319735 325.02605285 -75.3515625 327.51757812 C-75.80406111 330.26460454 -75.80406111 330.26460454 -75.73974609 333.30834961 C-75.74920258 334.47313339 -75.75865906 335.63791718 -75.7684021 336.83799744 C-75.76232941 338.09222 -75.75625671 339.34644257 -75.75 340.63867188 C-75.75287018 341.93072037 -75.75574036 343.22276886 -75.75869751 344.55397034 C-75.76311552 347.28682228 -75.75670817 350.01937963 -75.74267578 352.75219727 C-75.72560062 356.2471159 -75.73541694 359.74134248 -75.75339317 363.23623562 C-75.76687242 366.57876908 -75.75741971 369.92111878 -75.75 373.26367188 C-75.75607269 374.51587021 -75.76214539 375.76806854 -75.7684021 377.05821228 C-75.75894562 378.22614822 -75.74948914 379.39408417 -75.73974609 380.59741211 C-75.73735931 381.62237289 -75.73497253 382.64733368 -75.73251343 383.70335388 C-75.28667186 386.99694912 -74.3530855 388.87916015 -72.3515625 391.51757812 C-71.3615625 391.84757812 -70.3715625 392.17757812 -69.3515625 392.51757812 C-66.94323059 391.36380386 -66.94323059 391.36380386 -64.3515625 389.51757812 C-63.26672073 388.80933395 -62.18187897 388.10108978 -61.06416321 387.37138367 C-56.17569288 383.86771646 -52.08567103 380.81300806 -50.20907593 374.94522095 C-49.85053944 370.8291905 -49.88188196 366.90474215 -50.08203125 362.78710938 C-50.10633567 361.30075702 -50.12481342 359.81429914 -50.13777161 358.32780457 C-50.1869753 354.45005126 -50.31421978 350.57882064 -50.45892334 346.70361328 C-50.59289792 342.73559834 -50.65148814 338.76650865 -50.71679688 334.796875 C-50.85544117 327.03416272 -51.07670962 319.27679042 -51.3515625 311.51757812 C-54.78231312 311.51757812 -59.34628701 315.55455121 -62.2265625 317.26757812 Z " fill="#212121" transform="translate(267.3515625,7.482421875)"/>
<path d="M0 0 C137.31305903 0 137.31305903 0 144.55859375 6.18359375 C145.17863281 6.92738281 145.79867187 7.67117187 146.4375 8.4375 C147.39462891 9.54931641 147.39462891 9.54931641 148.37109375 10.68359375 C151.19095543 14.69361287 152.25037165 18.20075724 152.24609566 23.08180714 C152.25007775 24.08801351 152.25405985 25.09421989 152.25816262 26.13091737 C152.25233693 27.22916438 152.24651125 28.32741138 152.24050903 29.4589386 C152.24221788 30.6311067 152.24392673 31.8032748 152.24568737 33.01096314 C152.24841157 36.26057599 152.24216281 39.5100292 152.23213124 42.75962317 C152.22349325 46.26536211 152.22641715 49.77109362 152.22793579 53.27684021 C152.22898442 59.34947281 152.22271012 65.42206243 152.21146011 71.49468422 C152.1952051 80.27466639 152.18999711 89.05462777 152.18748413 97.83462336 C152.18310703 112.07962071 152.16979751 126.32459516 152.15087891 140.56958008 C152.1325205 154.40714402 152.1183638 168.24470173 152.10986328 182.08227539 C152.10933783 182.93524251 152.10881239 183.78820963 152.10827102 184.66702423 C152.10566094 188.9461154 152.10313352 193.22520661 152.10064721 197.50429785 C152.07991424 233.00288156 152.0446883 268.50143867 152 304 C150.96069336 304.0093457 149.92138672 304.01869141 148.85058594 304.02832031 C144.98866162 304.06824123 141.1275322 304.13400478 137.26611328 304.20751953 C135.59596989 304.23571718 133.92569335 304.25693779 132.25537109 304.27099609 C129.85184628 304.29244337 127.44992017 304.33909845 125.046875 304.390625 C124.30193787 304.39185364 123.55700073 304.39308228 122.78948975 304.39434814 C119.31944192 304.49203835 117.34081093 304.74482943 114.52832031 306.85058594 C112.43708566 309.79167698 112.41124738 311.46748429 113 315 C114.47466619 317.30536897 114.47466619 317.30536897 117 319 C119.80696003 319.41786702 122.23851941 319.60474313 125.046875 319.609375 C125.81807678 319.62591125 126.58927856 319.64244751 127.3838501 319.65948486 C129.83931454 319.70794593 132.29415984 319.72933037 134.75 319.75 C136.41799987 319.77816146 138.08597092 319.80808914 139.75390625 319.83984375 C143.8358865 319.91370372 147.91752345 319.96328936 152 320 C152.09359689 336.14250048 152.16405415 352.28491242 152.20724869 368.42761898 C152.22784111 375.92359954 152.25589775 383.41941113 152.30175781 390.9152832 C152.34172779 397.45155139 152.36745693 403.98769714 152.37635398 410.52408415 C152.38155167 413.9825234 152.39369766 417.44061252 152.42292023 420.89893913 C152.45533951 424.76724499 152.45595291 428.63521376 152.45410156 432.50366211 C152.46848267 433.64014694 152.48286377 434.77663177 152.49768066 435.94755554 C152.45612018 443.99065095 151.0823814 450.26809646 145.88671875 456.55859375 C145.16097656 457.17863281 144.43523437 457.79867188 143.6875 458.4375 C142.96949219 459.07558594 142.25148438 459.71367187 141.51171875 460.37109375 C134.59714481 464.85535088 127.04709146 464.27438172 119.08813477 464.22705078 C117.15539452 464.22748886 117.15539452 464.22748886 115.18360901 464.22793579 C111.66755023 464.22850735 108.15162915 464.21678506 104.63560224 464.20278788 C100.95474278 464.19024761 97.27387984 464.18910743 93.59300232 464.18673706 C86.63042597 464.18053195 79.66791277 464.16413431 72.70536417 464.14403808 C64.77549462 464.12164885 56.84562199 464.11067806 48.91572869 464.10064721 C32.61044889 464.07976718 16.30523251 464.04461013 0 464 C-0.18559659 451.88235228 -0.32762708 439.76504423 -0.41449738 427.64626312 C-0.45619757 422.0185465 -0.51273196 416.39180428 -0.60351562 410.76464844 C-0.6906252 405.33104419 -0.738313 399.89837535 -0.75901794 394.46412659 C-0.77376703 392.39402036 -0.80257015 390.3239637 -0.84584045 388.2542572 C-1.1723367 371.98598693 -1.1723367 371.98598693 1.7331543 367.06396484 C3.86914062 364.95117188 3.86914062 364.95117188 5.9967041 363.44519043 C11.18918364 359.69930259 13.88761537 352.06755251 15 346 C15.74188933 337.31418794 14.7627683 330.82776698 11 323 C10.505 321.515 10.505 321.515 10 320 C10.825 319.29875 11.65 318.5975 12.5 317.875 C15.22581535 315.23293596 15.22581535 315.23293596 15.5625 311.9375 C15.16270424 308.99826039 15.16270424 308.99826039 13.6875 306.6875 C9.96768958 304.06895549 9.96768958 304.06895549 0 304 C0 203.68 0 103.36 0 0 Z " fill="#FAFAF9" transform="translate(320,24)"/>
<path d="M0 0 C1.63001953 0.01353516 1.63001953 0.01353516 3.29296875 0.02734375 C4.12441406 0.03894531 4.95585937 0.05054688 5.8125 0.0625 C10.14965718 36.85446136 10.14965718 36.85446136 4.62347412 46.03857422 C-1.40690497 53.10960409 -10.537882 56.53890513 -19.00048828 59.79638672 C-25.20543949 62.26144547 -29.39023855 65.17545968 -32.35713196 71.40275574 C-34.20280139 77.31460256 -33.80209401 83.66309844 -33.7890625 89.8046875 C-33.79685152 91.33871925 -33.80552394 92.87274675 -33.81503296 94.4067688 C-33.82990042 97.61263038 -33.82941741 100.81805126 -33.81884766 104.02392578 C-33.80726842 108.10835075 -33.84111628 112.19095868 -33.887537 116.27508354 C-33.91717314 119.44099256 -33.91873363 122.60647208 -33.91251755 125.77249527 C-33.91353606 127.27703574 -33.92386155 128.7816028 -33.94414139 130.28600693 C-34.05232305 139.43273701 -33.47377939 146.90880433 -27.1875 154.0625 C-21.81487388 158.45125438 -16.93164976 159.61844498 -10.05859375 159.62890625 C-2.95205627 158.22693627 2.35789479 154.1312819 7.625 149.375 C8.8506476 148.29583503 10.07721905 147.21771844 11.3046875 146.140625 C11.90120117 145.61404297 12.49771484 145.08746094 13.11230469 144.54492188 C15.44408274 142.51181499 17.84146128 140.56621032 20.25 138.625 C25.35557465 134.48189009 30.31050053 130.1801955 35.26538086 125.85961914 C39.74863233 121.95948078 44.31417749 118.17962239 48.93359375 114.44140625 C52.46777896 111.52102797 55.92061593 108.51393828 59.375 105.5 C80.22742281 87.35673991 80.22742281 87.35673991 91 87.72265625 C96.46424205 88.38291883 100.82066193 89.97840838 104.66796875 94.00390625 C108.76889016 99.29321819 110.32568627 103.60780571 110.19921875 110.3203125 C108.81627481 120.12664223 100.6213952 126.37557602 93.57666016 132.50390625 C90.35886794 135.34674953 87.24866896 138.30461916 84.125 141.25 C82.75659072 142.53524175 81.38809989 143.82039669 80.01953125 145.10546875 C75.06834645 149.76126709 70.11941224 154.41945767 65.17138672 159.07861328 C58.38930261 165.46384858 51.59400821 171.83492723 44.79638672 178.20361328 C42.13517196 180.69715121 39.47465872 183.19143691 36.81420898 185.68579102 C35.48175031 186.93504212 34.14923096 188.18422852 32.81665039 189.43334961 C28.77945564 193.21775682 24.74368539 197.00367378 20.70947266 200.79125977 C19.36917727 202.0482115 18.02771829 203.30392371 16.68505859 204.55834961 C13.45171154 207.5794062 10.23334156 210.61307454 7.046875 213.68359375 C-7.12863434 227.26537441 -18.91499154 232.5692509 -38.83862305 232.40307617 C-40.27865074 232.40222804 -41.71867972 232.40270866 -43.15870667 232.40440369 C-47.03408101 232.40525783 -50.90917184 232.38772738 -54.78448081 232.36668181 C-58.84701298 232.34781706 -62.90955298 232.3461569 -66.97212219 232.34260559 C-74.64999966 232.33331372 -82.32774765 232.30873902 -90.00556833 232.27855712 C-100.3913125 232.23862406 -110.77709256 232.22253512 -121.16289425 232.20505047 C-137.50452632 232.17691555 -153.84588527 232.11712716 -170.1875 232.0625 C-170.1875 199.7225 -170.1875 167.3825 -170.1875 134.0625 C-159.7925 132.0825 -159.7925 132.0825 -149.1875 130.0625 C-129.97870289 123.4817084 -121.08960955 109.49741816 -110.17578125 93.44140625 C-105.13490881 86.03195154 -99.96703722 78.71081968 -94.80957031 71.38232422 C-93.34453103 69.28707989 -91.89884576 67.18031396 -90.4609375 65.06640625 C-81.87546029 52.53529859 -72.43560426 43.82226487 -59.63671875 35.8671875 C-55.26927671 33.14717239 -51.06210475 30.23832552 -46.875 27.25 C-46.18776855 26.76072021 -45.50053711 26.27144043 -44.79248047 25.76733398 C-43.35784024 24.74534654 -41.92360521 23.7227901 -40.48974609 22.69970703 C-36.23668426 19.67520728 -31.96188377 16.68175249 -27.6875 13.6875 C-26.87498779 13.11668701 -26.06247559 12.54587402 -25.2253418 11.95776367 C-21.26276151 9.18131711 -17.28584254 6.42649116 -13.28125 3.7109375 C-12.20907227 2.98269775 -12.20907227 2.98269775 -11.11523438 2.23974609 C-7.37976355 -0.04146469 -4.27498253 -0.04596755 0 0 Z " fill="#F3C7AC" transform="translate(210.1875,255.9375)"/>
<path d="M0 0 C0 100.32 0 200.64 0 304 C-5.28 304.66 -10.56 305.32 -16 306 C-23.90027011 309.17559877 -29.40128946 312.82008931 -35.51953125 318.65625 C-38.00876051 321.00827765 -40.58391805 323.16406608 -43.25 325.3125 C-48.8030806 329.80860219 -54.22684394 334.4437771 -59.640625 339.10546875 C-60.18654297 339.57388184 -60.73246094 340.04229492 -61.29492188 340.52490234 C-62.50712204 341.57360129 -63.71069205 342.63231224 -64.90820312 343.69775391 C-65.53146484 344.24737793 -66.15472656 344.79700195 -66.796875 345.36328125 C-67.36245117 345.86770752 -67.92802734 346.37213379 -68.51074219 346.8918457 C-70 348 -70 348 -72 348 C-72 338.76 -72 329.52 -72 320 C-58.75 319.75 -58.75 319.75 -54.58886719 319.70214844 C-53.50250977 319.6715332 -52.41615234 319.64091797 -51.296875 319.609375 C-50.18666992 319.58842773 -49.07646484 319.56748047 -47.93261719 319.54589844 C-44.37298252 318.88328246 -43.17204939 317.85073387 -41 315 C-40.33333333 312 -40.33333333 312 -41 309 C-43.17204939 306.14926613 -44.37298252 305.11671754 -47.93261719 304.45410156 C-49.5979248 304.42268066 -49.5979248 304.42268066 -51.296875 304.390625 C-52.50214844 304.35839844 -53.70742187 304.32617188 -54.94921875 304.29296875 C-56.20347656 304.27878906 -57.45773438 304.26460938 -58.75 304.25 C-60.01972656 304.22035156 -61.28945312 304.19070313 -62.59765625 304.16015625 C-65.73183485 304.08946049 -68.86526956 304.03675988 -72 304 C-72.09156357 267.70148826 -72.1620428 231.40299679 -72.20426132 195.10439333 C-72.20926412 190.8186188 -72.21444141 186.5328445 -72.21972656 182.24707031 C-72.2207758 181.39385297 -72.22182505 180.54063563 -72.22290608 179.66156322 C-72.24030939 165.84796533 -72.27184667 152.03443406 -72.30861118 138.22087568 C-72.34602267 124.04596565 -72.36823629 109.87109051 -72.37635398 95.69613314 C-72.38184133 86.95001856 -72.39917007 78.20409227 -72.43166587 69.45803565 C-72.45281632 63.45981977 -72.45919885 57.46170118 -72.45400551 51.46345073 C-72.45144453 48.0031752 -72.45535898 44.54322861 -72.4768219 41.08301163 C-72.49671119 37.32831236 -72.49194184 33.57441993 -72.48101807 29.81970215 C-72.49266943 28.73019367 -72.5043208 27.64068519 -72.51632524 26.5181613 C-72.45549276 18.78688472 -70.99199756 13.37201872 -65.81640625 7.5390625 C-64.70072266 6.59160156 -64.70072266 6.59160156 -63.5625 5.625 C-62.82128906 4.97789063 -62.08007812 4.33078125 -61.31640625 3.6640625 C-44.68727245 -8.28199315 -20.47526158 0 0 0 Z " fill="#598DDD" transform="translate(304,24)"/>
<path d="M0 0 C1.56687561 -0.01395813 1.56687561 -0.01395813 3.16540527 -0.02819824 C4.28322388 -0.01180298 5.40104248 0.00459229 6.55273438 0.02148438 C8.28892029 0.02142395 8.28892029 0.02142395 10.06018066 0.0213623 C12.50453122 0.02671784 14.94888131 0.0443017 17.39306641 0.07324219 C21.13302271 0.11508377 24.8711773 0.11431072 28.61132812 0.10742188 C30.98764271 0.11791492 33.36394803 0.13085363 35.74023438 0.14648438 C36.85805298 0.14668579 37.97587158 0.14688721 39.12756348 0.14709473 C40.69443909 0.17096252 40.69443909 0.17096252 42.29296875 0.1953125 C43.66600159 0.20794128 43.66600159 0.20794128 45.06677246 0.2208252 C48.18706664 0.69788337 50.09531072 1.78450064 52.64648438 3.61523438 C54.14767072 6.61760706 53.79085556 9.70433925 53.78692627 12.99726868 C53.78989739 13.76724109 53.79286851 14.53721351 53.79592967 15.33051842 C53.80463873 17.92453941 53.80612678 20.51851436 53.80761719 23.11254883 C53.81224381 24.96677754 53.81726826 26.8210053 53.82266235 28.67523193 C53.83580361 33.72280854 53.8422347 38.77037184 53.84667301 43.81796288 C53.84960104 46.96954227 53.85370533 50.12111799 53.85817719 53.27269554 C53.87185684 63.12755514 53.88152113 72.98240641 53.88537908 82.83727485 C53.88986074 94.22376919 53.90741171 105.61014355 53.93637967 116.9966014 C53.95797793 125.7907048 53.96808237 134.5847744 53.96942019 143.37890404 C53.97046958 148.63454462 53.97640571 153.89007248 53.99423981 159.1456852 C54.01068835 164.08932019 54.01289166 169.03275735 54.0041008 173.97640991 C54.00332869 175.79166887 54.00769597 177.60693832 54.01755905 179.42217064 C54.0302289 181.89910054 54.02442906 184.37532452 54.01397705 186.85224915 C54.02606166 187.93144032 54.02606166 187.93144032 54.0383904 189.03243333 C53.99546977 193.37724706 53.38508458 196.19749776 50.64648438 199.61523438 C47.6528142 200.61312443 45.63260429 200.75321938 42.50415039 200.77636719 C41.4561879 200.78597473 40.4082254 200.79558228 39.32850647 200.80548096 C38.19722824 200.80973083 37.06595001 200.81398071 35.90039062 200.81835938 C34.73773178 200.82405945 33.57507294 200.82975952 32.37718201 200.83563232 C29.91674714 200.84508288 27.45629961 200.85161652 24.99584961 200.85546875 C21.22747841 200.86518668 17.4596497 200.89621538 13.69140625 200.92773438 C11.30273762 200.93426317 8.91406508 200.93951413 6.52539062 200.94335938 C5.39613663 200.95570618 4.26688263 200.96805298 3.10340881 200.98077393 C2.05229416 200.97777283 1.0011795 200.97477173 -0.08178711 200.97167969 C-1.46719948 200.97714813 -1.46719948 200.97714813 -2.88059998 200.98272705 C-5.85244278 200.54109029 -7.19993397 199.68456894 -9.35351562 197.61523438 C-10.54077095 194.05346839 -10.50486455 190.81986997 -10.50741577 187.11294556 C-10.51179803 186.34211872 -10.51618028 185.57129187 -10.52069533 184.77710664 C-10.53408301 182.18620015 -10.54026205 179.59532766 -10.54638672 177.00439453 C-10.55428754 175.15001776 -10.56255648 173.29564253 -10.57116699 171.44126892 C-10.59738351 165.34562651 -10.61269158 159.24997722 -10.62695312 153.15429688 C-10.63231245 151.05716319 -10.63768996 148.96002956 -10.64308548 146.86289597 C-10.66471126 138.14203042 -10.68344961 129.42116672 -10.69470787 120.70028114 C-10.71095901 108.19355135 -10.74416857 95.68713163 -10.80110872 83.18051875 C-10.83976664 74.39064386 -10.85933549 65.60085206 -10.86462843 56.81089437 C-10.86828681 51.55852815 -10.88036016 46.30649267 -10.91273117 41.05421829 C-10.94273973 36.11458051 -10.94914945 31.17547487 -10.93734741 26.23576546 C-10.93712609 24.42210345 -10.94547946 22.60841724 -10.96300125 20.79483986 C-10.98561435 18.3197454 -10.97743612 15.84659361 -10.96151733 13.37149048 C-10.97539942 12.65271182 -10.98928151 11.93393316 -11.00358427 11.19337332 C-10.94213539 7.31956791 -10.44213732 5.72507801 -7.97674751 2.66930962 C-5.00126716 0.33941246 -3.72480903 -0.00836004 0 0 Z " fill="#212121" transform="translate(338.353515625,31.384765625)"/>
<path d="M0 0 C1.21189499 -0.00554901 2.42378998 -0.01109802 3.67240906 -0.01681519 C6.98903489 -0.0265929 10.30409834 -0.01402681 13.62055779 0.00946999 C17.09489473 0.02960797 20.56919813 0.02369791 24.0435791 0.0213623 C29.87766191 0.02141585 35.71142052 0.04115355 41.54541016 0.07324219 C48.28528902 0.11013385 55.0247433 0.11891746 61.76470995 0.11194468 C68.25475312 0.10563404 74.74465106 0.11640428 81.23466492 0.13591003 C83.99372938 0.14407354 86.75271952 0.14679553 89.51179504 0.1452179 C93.3660937 0.14417378 97.22000933 0.16837667 101.07421875 0.1953125 C102.21722946 0.1923819 103.36024017 0.18945129 104.53788757 0.18643188 C106.11501274 0.20345657 106.11501274 0.20345657 107.72399902 0.2208252 C108.63468895 0.22455391 109.54537888 0.22828262 110.48366547 0.23212433 C113.59447653 0.69885985 115.49506771 1.79130185 118.03710938 3.61523438 C119.28667733 6.11437029 119.17753241 7.83163613 119.19824219 10.62817383 C119.20784973 11.67298416 119.21745728 12.71779449 119.22735596 13.79426575 C119.23373077 15.49421944 119.23373077 15.49421944 119.24023438 17.22851562 C119.24593445 18.39021774 119.25163452 19.55191986 119.25750732 20.74882507 C119.26696733 23.2110401 119.27349526 25.67326785 119.27734375 28.13549805 C119.28704247 31.9017551 119.31805446 35.66746503 119.34960938 39.43359375 C119.35613992 41.82356446 119.36139019 44.21353908 119.36523438 46.60351562 C119.37758118 47.73074539 119.38992798 48.85797516 119.40264893 50.0193634 C119.39964783 51.07363022 119.39664673 52.12789703 119.39355469 53.21411133 C119.39902313 54.60071709 119.39902313 54.60071709 119.40460205 56.01533508 C118.95609964 59.18835369 117.9498402 61.05960431 116.03710938 63.61523438 C113.05055605 64.61075215 111.07641988 64.74552462 107.95777893 64.75567627 C106.38261002 64.76424149 106.38261002 64.76424149 104.77561951 64.77297974 C103.6238472 64.7740976 102.47207489 64.77521545 101.28540039 64.77636719 C99.46558655 64.78381454 99.46558655 64.78381454 97.60900879 64.79141235 C94.28049553 64.80352057 90.95204508 64.8109787 87.62351727 64.81542301 C85.54416905 64.81835493 83.46482633 64.82245991 81.38548088 64.82692719 C74.88000723 64.84059747 68.37454616 64.85026708 61.86905915 64.85412908 C54.35841279 64.85861235 46.84794819 64.87617451 39.3373571 64.90512967 C33.53175818 64.92673538 27.72621045 64.93683272 21.92057174 64.93817019 C18.45291813 64.9392188 14.98543548 64.94513839 11.51782417 64.96298981 C7.65122715 64.98250872 3.78485807 64.97818595 -0.08178711 64.97167969 C-1.23153519 64.98089447 -2.38128326 64.99010925 -3.56587219 64.99960327 C-4.61880463 64.99403412 -5.67173706 64.98846497 -6.75657654 64.98272705 C-7.67078589 64.98419361 -8.58499525 64.98566017 -9.52690792 64.98717117 C-12.47186691 64.53752159 -13.82443231 63.66435111 -15.96289062 61.61523438 C-16.95538899 58.63773928 -17.11225419 56.60049503 -17.15576172 53.48876953 C-17.17985611 51.92166733 -17.17985611 51.92166733 -17.20443726 50.32290649 C-17.24891405 45.55512174 -17.28993367 40.78747482 -17.31298828 36.01953125 C-17.32956687 33.50348676 -17.35688144 30.98748973 -17.39501953 28.47167969 C-17.44971279 24.84480347 -17.47164984 21.21902962 -17.48632812 17.59179688 C-17.5089975 16.46770416 -17.53166687 15.34361145 -17.55502319 14.18545532 C-17.55217316 13.1344162 -17.54932312 12.08337708 -17.54638672 11.00048828 C-17.55447357 10.07910065 -17.56256042 9.15771301 -17.57089233 8.20840454 C-15.43421541 -0.90467321 -7.65121364 -0.088783 0 0 Z " fill="#212121" transform="translate(344.962890625,247.384765625)"/>
<path d="M0 0 C2.8858238 2.8858238 3.22903606 5.62695348 3.4375 9.5625 C3.29379443 17.18994952 -0.26650083 22.22392296 -5.5078125 27.546875 C-8.05031724 29.88847337 -10.62846955 32.17321219 -13.23583984 34.44140625 C-16.45363206 37.28424953 -19.56383104 40.24211916 -22.6875 43.1875 C-24.05590928 44.47274175 -25.42440011 45.75789669 -26.79296875 47.04296875 C-31.74415355 51.69876709 -36.69308776 56.35695767 -41.64111328 61.01611328 C-48.42319739 67.40134858 -55.21849179 73.77242723 -62.01611328 80.14111328 C-64.67732804 82.63465121 -67.33784128 85.12893691 -69.99829102 87.62329102 C-71.33074969 88.87254212 -72.66326904 90.12172852 -73.99584961 91.37084961 C-78.03304436 95.15525682 -82.06881461 98.94117378 -86.10302734 102.72875977 C-87.44332273 103.9857115 -88.78478171 105.24142371 -90.12744141 106.49584961 C-93.36078846 109.5169062 -96.57915844 112.55057454 -99.765625 115.62109375 C-113.94113434 129.20287441 -125.72749154 134.5067509 -145.65112305 134.34057617 C-147.09115074 134.33972804 -148.53117972 134.34020866 -149.97120667 134.34190369 C-153.84658101 134.34275783 -157.72167184 134.32522738 -161.59698081 134.30418181 C-165.65951298 134.28531706 -169.72205298 134.2836569 -173.78462219 134.28010559 C-181.46249966 134.27081372 -189.14024765 134.24623902 -196.81806833 134.21605712 C-207.2038125 134.17612406 -217.58959256 134.16003512 -227.97539425 134.14255047 C-244.31702632 134.11441555 -260.65838527 134.05462716 -277 134 C-277 101.66 -277 69.32 -277 36 C-256 32 -256 32 -254 32 C-253.98541748 33.14364014 -253.97083496 34.28728027 -253.95581055 35.46557617 C-253.89718384 39.76925625 -253.81996416 44.07244769 -253.73754883 48.37573242 C-253.70459868 50.22688783 -253.67647707 52.0781365 -253.65356445 53.92944336 C-253.44125127 70.63894231 -252.83159947 85.3293401 -240.89453125 98.28515625 C-228.29840603 110.21246066 -214.42217496 111.31696043 -197.91796875 111.30078125 C-196.25563959 111.30467647 -194.59331142 111.30901282 -192.9309845 111.31376648 C-189.45713059 111.3211987 -185.98337837 111.32095967 -182.50952148 111.31567383 C-178.08844299 111.3098888 -173.66778476 111.32680136 -169.24677563 111.3500185 C-165.81579715 111.36485196 -162.3849176 111.36561447 -158.95391273 111.36250877 C-157.32545453 111.36301735 -155.69699009 111.36816663 -154.06856346 111.37832069 C-130.2665539 111.50852742 -117.81452092 104.0039156 -100.52734375 88.24609375 C-97.93037607 85.93812402 -95.26595987 83.74444137 -92.5625 81.5625 C-87.788597 77.70174863 -83.26611572 73.62562925 -78.75 69.46875 C-75.18815771 66.27118704 -71.47434167 63.28611657 -67.75 60.28125 C-64.91900422 57.93281032 -62.20616402 55.49090098 -59.5 53 C-55.0301488 48.88621091 -50.40955107 45.02912703 -45.68359375 41.21484375 C-43.05291443 39.04367173 -40.52057576 36.79758643 -38 34.5 C-34.60401318 31.40444804 -31.13828469 28.44848793 -27.5625 25.5625 C-22.77570049 21.69260856 -18.24302928 17.60534144 -13.72265625 13.4296875 C-10.25105681 10.3316461 -6.60969671 7.49533868 -2.8984375 4.69140625 C-0.7404909 3.05142106 -0.7404909 3.05142106 0 0 Z " fill="#F1B8A0" transform="translate(317,354)"/>
<path d="M0 0 C10.56 0 21.12 0 32 0 C32 55.44 32 110.88 32 168 C21.44 168 10.88 168 0 168 C0 112.56 0 57.12 0 0 Z " fill="#588DDD" transform="translate(344,48)"/>
<path d="M0 0 C34.32 0 68.64 0 104 0 C104 10.56 104 21.12 104 32 C69.68 32 35.36 32 0 32 C0 21.44 0 10.88 0 0 Z " fill="#588DDD" transform="translate(344,264)"/>
<path d="M0 0 C0 25.74 0 51.48 0 78 C-8.745 78.0825 -17.49 78.165 -26.5 78.25 C-29.24634766 78.28641602 -31.99269531 78.32283203 -34.82226562 78.36035156 C-37.01691915 78.37204206 -39.21158139 78.38223303 -41.40625 78.390625 C-42.5312793 78.41108887 -43.65630859 78.43155273 -44.81542969 78.45263672 C-52.7653907 78.45614509 -58.28935263 77.43485601 -64.3125 71.859375 C-65.1478125 70.81523437 -65.1478125 70.81523437 -66 69.75 C-66.5775 69.04359375 -67.155 68.3371875 -67.75 67.609375 C-68.1625 67.07828125 -68.575 66.5471875 -69 66 C-65.68374563 58.07378764 -57.33176468 52.18741316 -50.9296875 46.7109375 C-48.15892418 44.25426881 -45.597071 41.60640023 -43 38.96875 C-40.43694772 36.44574541 -37.72654176 34.12437183 -35 31.78125 C-32.91662922 29.9257479 -30.95718793 27.98776899 -29 26 C-26.44009866 23.40017817 -23.8322046 20.93731602 -21.0625 18.5625 C-18.04925207 15.97465178 -15.22723019 13.26505704 -12.4375 10.4375 C-2.12510702 0 -2.12510702 0 0 0 Z " fill="#588DDD" transform="translate(304,410)"/>
<path d="M0 0 C2.57234281 1.65037228 3.57065137 2.39137792 5 5 C5.75913904 9.46994032 5.66165579 13.90745618 5.61523438 18.43164062 C5.61873719 19.81341737 5.62439758 21.19519008 5.63204956 22.57695007 C5.6462847 26.32300651 5.62924932 30.06832777 5.60576439 33.81431389 C5.58564013 37.73708684 5.59153576 41.65982972 5.59387207 45.5826416 C5.59381852 52.16996365 5.57407188 58.75699871 5.54199219 65.34423828 C5.50509999 72.95660946 5.49631679 80.56860473 5.5032897 88.18105364 C5.50959818 95.5083018 5.49883406 102.83542125 5.47932434 110.16264343 C5.47115633 113.2789646 5.46843969 116.39521993 5.47001648 119.5115509 C5.47089639 123.1822924 5.45665101 126.85267751 5.43078995 130.52332497 C5.42022854 132.51065447 5.42429681 134.49804488 5.42880249 136.48539734 C5.4174527 137.67144058 5.40610291 138.85748383 5.39440918 140.07946777 C5.39068047 141.1081472 5.38695175 142.13682663 5.38311005 143.19667816 C4.93722122 146.45936966 3.93117655 148.35430258 2 151 C-0.88861709 152.44430855 -2.79647701 152.37688506 -6 152 C-8.60610001 150.3550308 -9.57248714 149.63650922 -11 147 C-11.76765734 142.5003938 -11.68238255 138.03164947 -11.64697266 133.4765625 C-11.65375141 132.08492896 -11.66265599 130.6933044 -11.67352295 129.30169678 C-11.6962931 125.52882593 -11.68748999 121.75663964 -11.67162752 117.98375702 C-11.65895642 114.03293532 -11.67071198 110.08217169 -11.67855835 106.13134766 C-11.68765144 99.49696341 -11.67567614 92.86285759 -11.65185547 86.22851562 C-11.62464458 78.56148529 -11.633459 70.89511977 -11.6609875 63.22810555 C-11.68368747 56.64193601 -11.68687439 50.05596645 -11.67379415 43.46977043 C-11.66600442 39.53761779 -11.66494458 35.60577751 -11.68147659 31.67364502 C-11.69593535 27.97647275 -11.68587552 24.2801564 -11.65700531 20.58307648 C-11.64725508 18.58141757 -11.6620828 16.57968614 -11.67764282 14.57806396 C-11.56219763 4.79771229 -11.56219763 4.79771229 -8.64706421 1.69384766 C-5.35399256 -0.41337803 -3.83469611 -0.79889502 0 0 Z " fill="#212121" transform="translate(451,40)"/>
<path d="M0 0 C4.97858654 5.05401967 8.06550686 11.18595289 11.4375 17.375 C12.67002846 19.60779114 13.90445793 21.83953378 15.140625 24.0703125 C15.77291016 25.21145508 16.40519531 26.35259766 17.05664062 27.52832031 C20.19898698 33.14190891 23.43727301 38.69836739 26.6875 44.25 C27.27523193 45.25466309 27.86296387 46.25932617 28.46850586 47.29443359 C31.49847819 52.4891831 31.49847819 52.4891831 34.67114258 57.59667969 C36 60 36 60 36.125 63.3125 C34.56083867 68.43947325 31.72328836 71.24322883 28 75 C26.73929687 76.31677734 26.73929687 76.31677734 25.453125 77.66015625 C17.68844838 85.64307082 17.68844838 85.64307082 14 87 C10.4375 86.9375 10.4375 86.9375 7 86 C4.88016625 83.53825758 4.12136432 81.84955026 3.6640625 78.6484375 C4.1308334 74.968546 5.77040165 73.5265667 8.3125 70.875 C9.11300781 70.02679688 9.91351563 69.17859375 10.73828125 68.3046875 C11.48464844 67.54414062 12.23101562 66.78359375 13 66 C13.82564453 65.10667969 13.82564453 65.10667969 14.66796875 64.1953125 C16 63 16 63 18 63 C17.60167969 62.27554688 17.20335937 61.55109375 16.79296875 60.8046875 C14.10994868 55.90866547 11.44255712 51.02081186 9 46 C6.42784952 49.85822573 5.04050733 53.95671437 3.4140625 58.28515625 C1.87376837 61.24235078 1.10949238 61.98179367 -2 63 C-5.2656659 63.48984988 -6.516025 63.33609375 -9.25 61.4375 C-11.49263981 58.31382312 -12.206793 55.78826286 -12 52 C-10.81106135 47.99158883 -9.16720506 44.20519704 -7.5 40.375 C-6.62358569 38.34621586 -5.75850887 36.31248677 -4.90625 34.2734375 C-4.51759766 33.38060059 -4.12894531 32.48776367 -3.72851562 31.56787109 C-2.46175293 27.10278729 -3.74191306 24.48297597 -5.8828125 20.4765625 C-6.9987919 18.53849152 -8.13149889 16.61430617 -9.29296875 14.703125 C-11.9037863 10.11781819 -12.42066094 7.30116999 -11 2 C-7.80678591 -1.93010964 -4.59247761 -1.3696863 0 0 Z " fill="#222223" transform="translate(260,49)"/>
<path d="M0 0 C4.15579926 0.86579151 5.42241101 2.25803358 8 5.625 C8.72433391 8.87947167 8.66321292 12.06184168 8.61523438 15.38476562 C8.62078339 16.36257492 8.6263324 17.34038422 8.63204956 18.3478241 C8.64384874 21.5761331 8.61956692 24.8030394 8.59375 28.03125 C8.59203892 30.27656999 8.59210456 32.52189197 8.59387207 34.76721191 C8.59221866 39.47146737 8.5735161 44.17524638 8.54199219 48.87939453 C8.50231497 54.9088057 8.49794692 60.93759274 8.50545502 66.96710968 C8.50852484 71.60310583 8.49640366 76.23896172 8.47932434 80.87492371 C8.47229398 83.09806946 8.46916985 85.32123111 8.47001648 87.54438782 C8.4682184 90.65162881 8.44683491 93.75812261 8.41992188 96.86523438 C8.42285248 97.78382736 8.42578308 98.70242035 8.42880249 99.64884949 C8.36480661 104.43863133 8.16407532 107.76080325 5 111.625 C2.11138291 113.06930855 0.20352299 113.00188506 -3 112.625 C-5.79693347 110.61816019 -7.6913274 109.00827315 -8.46303177 105.54998779 C-8.65229644 102.9459572 -8.67544942 100.38428965 -8.64697266 97.7734375 C-8.66011505 96.2920932 -8.66011505 96.2920932 -8.67352295 94.78082275 C-8.69550912 91.52010008 -8.6809662 88.26073619 -8.6640625 85 C-8.66743084 82.73225647 -8.6722836 80.4645147 -8.67855835 78.19677734 C-8.68592866 73.44546307 -8.6752185 68.69461898 -8.65185547 63.94335938 C-8.62336828 57.85320613 -8.63977131 51.76415457 -8.66971779 45.67404175 C-8.68778607 40.99169617 -8.68203473 36.30961175 -8.66907883 31.6272583 C-8.66574355 29.38177358 -8.66983612 27.13626513 -8.68147659 24.89080811 C-8.69417694 21.75208742 -8.67481801 18.61515033 -8.64697266 15.4765625 C-8.65709381 14.54861877 -8.66721497 13.62067505 -8.67764282 12.66461182 C-8.60366284 8.16314122 -8.45894388 6.22510748 -5.64706421 2.54833984 C-3 0.625 -3 0.625 0 0 Z " fill="#222222" transform="translate(432,359.375)"/>
<path d="M0 0 C4.15579926 0.86579151 5.42241101 2.25803358 8 5.625 C8.72433391 8.87947167 8.66321292 12.06184168 8.61523438 15.38476562 C8.62078339 16.36257492 8.6263324 17.34038422 8.63204956 18.3478241 C8.64384874 21.5761331 8.61956692 24.8030394 8.59375 28.03125 C8.59203892 30.27656999 8.59210456 32.52189197 8.59387207 34.76721191 C8.59221866 39.47146737 8.5735161 44.17524638 8.54199219 48.87939453 C8.50231497 54.9088057 8.49794692 60.93759274 8.50545502 66.96710968 C8.50852484 71.60310583 8.49640366 76.23896172 8.47932434 80.87492371 C8.47229398 83.09806946 8.46916985 85.32123111 8.47001648 87.54438782 C8.4682184 90.65162881 8.44683491 93.75812261 8.41992188 96.86523438 C8.42285248 97.78382736 8.42578308 98.70242035 8.42880249 99.64884949 C8.36480661 104.43863133 8.16407532 107.76080325 5 111.625 C2.11138291 113.06930855 0.20352299 113.00188506 -3 112.625 C-5.79693347 110.61816019 -7.6913274 109.00827315 -8.46303177 105.54998779 C-8.65229644 102.9459572 -8.67544942 100.38428965 -8.64697266 97.7734375 C-8.66011505 96.2920932 -8.66011505 96.2920932 -8.67352295 94.78082275 C-8.69550912 91.52010008 -8.6809662 88.26073619 -8.6640625 85 C-8.66743084 82.73225647 -8.6722836 80.4645147 -8.67855835 78.19677734 C-8.68592866 73.44546307 -8.6752185 68.69461898 -8.65185547 63.94335938 C-8.62336828 57.85320613 -8.63977131 51.76415457 -8.66971779 45.67404175 C-8.68778607 40.99169617 -8.68203473 36.30961175 -8.66907883 31.6272583 C-8.66574355 29.38177358 -8.66983612 27.13626513 -8.68147659 24.89080811 C-8.69417694 21.75208742 -8.67481801 18.61515033 -8.64697266 15.4765625 C-8.65709381 14.54861877 -8.66721497 13.62067505 -8.67764282 12.66461182 C-8.60366284 8.16314122 -8.45894388 6.22510748 -5.64706421 2.54833984 C-3 0.625 -3 0.625 0 0 Z " fill="#222222" transform="translate(400,359.375)"/>
<path d="M0 0 C4.15579926 0.86579151 5.42241101 2.25803358 8 5.625 C8.72433391 8.87947167 8.66321292 12.06184168 8.61523438 15.38476562 C8.62078339 16.36257492 8.6263324 17.34038422 8.63204956 18.3478241 C8.64384874 21.5761331 8.61956692 24.8030394 8.59375 28.03125 C8.59203892 30.27656999 8.59210456 32.52189197 8.59387207 34.76721191 C8.59221866 39.47146737 8.5735161 44.17524638 8.54199219 48.87939453 C8.50231497 54.9088057 8.49794692 60.93759274 8.50545502 66.96710968 C8.50852484 71.60310583 8.49640366 76.23896172 8.47932434 80.87492371 C8.47229398 83.09806946 8.46916985 85.32123111 8.47001648 87.54438782 C8.4682184 90.65162881 8.44683491 93.75812261 8.41992188 96.86523438 C8.42285248 97.78382736 8.42578308 98.70242035 8.42880249 99.64884949 C8.36480661 104.43863133 8.16407532 107.76080325 5 111.625 C2.11138291 113.06930855 0.20352299 113.00188506 -3 112.625 C-5.79693347 110.61816019 -7.6913274 109.00827315 -8.46303177 105.54998779 C-8.65229644 102.9459572 -8.67544942 100.38428965 -8.64697266 97.7734375 C-8.66011505 96.2920932 -8.66011505 96.2920932 -8.67352295 94.78082275 C-8.69550912 91.52010008 -8.6809662 88.26073619 -8.6640625 85 C-8.66743084 82.73225647 -8.6722836 80.4645147 -8.67855835 78.19677734 C-8.68592866 73.44546307 -8.6752185 68.69461898 -8.65185547 63.94335938 C-8.62336828 57.85320613 -8.63977131 51.76415457 -8.66971779 45.67404175 C-8.68778607 40.99169617 -8.68203473 36.30961175 -8.66907883 31.6272583 C-8.66574355 29.38177358 -8.66983612 27.13626513 -8.68147659 24.89080811 C-8.69417694 21.75208742 -8.67481801 18.61515033 -8.64697266 15.4765625 C-8.65709381 14.54861877 -8.66721497 13.62067505 -8.67764282 12.66461182 C-8.60366284 8.16314122 -8.45894388 6.22510748 -5.64706421 2.54833984 C-3 0.625 -3 0.625 0 0 Z " fill="#222222" transform="translate(368,359.375)"/>
<path d="M0 0 C-0.10839844 1.75195312 -0.10839844 1.75195312 -1 4 C-3.07793591 5.50370009 -5.03485853 6.73732062 -7.265625 7.96875 C-7.89603699 8.33093628 -8.52644897 8.69312256 -9.17596436 9.06628418 C-11.19395804 10.22307362 -13.22123812 11.36221915 -15.25 12.5 C-17.2626665 13.64065571 -19.27313237 14.78496412 -21.28118896 15.93371582 C-22.53028854 16.64702233 -23.78230849 17.35524744 -25.03765869 18.05749512 C-31.70311428 21.83661089 -36.78667767 25.34188684 -39 33 C-39.59448246 38.24872609 -39.6127524 43.4685271 -39.6015625 48.7421875 C-39.60935152 50.27621925 -39.61802394 51.81024675 -39.62753296 53.3442688 C-39.64240042 56.55013038 -39.64191741 59.75555126 -39.63134766 62.96142578 C-39.61976842 67.04585075 -39.65361628 71.12845868 -39.700037 75.21258354 C-39.72967314 78.37849256 -39.73123363 81.54397208 -39.72501755 84.70999527 C-39.72603606 86.21453574 -39.73636155 87.7191028 -39.75664139 89.22350693 C-39.86615528 98.48287684 -39.12948188 105.64536151 -33 113 C-30.35823067 115.55694686 -30.35823067 115.55694686 -28 117 C-46.75832988 117.72044795 -46.75832988 117.72044795 -52.84375 112.3828125 C-57.21108138 107.5828681 -58.11584391 103.92957779 -58.16113281 97.47216797 C-58.17074036 96.36356415 -58.1803479 95.25496033 -58.19024658 94.11276245 C-58.19449646 92.91797272 -58.19874634 91.72318298 -58.203125 90.4921875 C-58.21167511 88.63849045 -58.21167511 88.63849045 -58.22039795 86.74734497 C-58.22984604 84.1297491 -58.23638117 81.51214134 -58.24023438 78.89453125 C-58.24676804 74.9112948 -58.28092712 70.92842811 -58.3125 66.9453125 C-58.31903316 64.39844055 -58.3242824 61.85156493 -58.328125 59.3046875 C-58.3404718 58.12204315 -58.3528186 56.9393988 -58.36553955 55.72091675 C-58.33544502 44.41436147 -56.58011684 36.55268334 -48.60009766 28.30371094 C-44.33827235 24.5276937 -39.67701668 21.82802702 -34.6875 19.125 C-32.57339869 17.93896057 -30.46013185 16.75143261 -28.34765625 15.5625 C-27.2920752 14.9746875 -26.23649414 14.386875 -25.14892578 13.78125 C-19.37174672 10.51327834 -13.72436138 7.02861006 -8.0690918 3.55517578 C-6.90953979 2.85110596 -6.90953979 2.85110596 -5.7265625 2.1328125 C-5.05189941 1.71918457 -4.37723633 1.30555664 -3.68212891 0.87939453 C-2 0 -2 0 0 0 Z " fill="#F0B8A0" transform="translate(216,297)"/>
<path d="M0 0 C4.10477426 0.8551613 5.41413469 2.34819212 8 5.625 C8.48476306 8.58490174 8.66615831 10.96352946 8.61523438 13.91601562 C8.62078339 14.73776779 8.6263324 15.55951996 8.63204956 16.40617371 C8.64383416 19.11513077 8.61958376 21.82241061 8.59375 24.53125 C8.5920385 26.4178459 8.59210498 28.30444419 8.59387207 30.19104004 C8.5922195 34.14207762 8.57353317 38.09254735 8.54199219 42.04345703 C8.50231483 47.10435472 8.49794735 52.16450882 8.50545502 57.22553253 C8.50852663 61.12036941 8.49639736 65.01503956 8.47932434 68.90983582 C8.4723001 70.77572076 8.46916911 72.64162461 8.47001648 74.50752258 C8.46821589 77.11668964 8.44681216 79.7249708 8.41992188 82.33398438 C8.42285248 83.10296555 8.42578308 83.87194672 8.42880249 84.66423035 C8.35767426 89.144141 7.782724 92.06675927 5 95.625 C2.11138291 97.06930855 0.20352299 97.00188506 -3 96.625 C-6.66848111 93.86615466 -7.87645644 92.37073873 -8.63491821 87.79248047 C-8.66448008 86.27599893 -8.66669453 84.75882892 -8.64697266 83.2421875 C-8.65573425 82.41068176 -8.66449585 81.57917603 -8.67352295 80.72247314 C-8.69548239 77.9811138 -8.68097711 75.24137498 -8.6640625 72.5 C-8.66743164 70.59097993 -8.67228508 68.68196195 -8.67855835 66.77294922 C-8.68592498 62.77485705 -8.67523094 58.77732398 -8.65185547 54.77929688 C-8.62336778 49.65761819 -8.63977288 44.53724953 -8.66971779 39.4156189 C-8.68779644 35.47442781 -8.68203014 31.53354668 -8.66907883 27.59234619 C-8.66574638 25.70412033 -8.66982622 23.8158662 -8.68147659 21.92767334 C-8.69419484 19.28696295 -8.67479623 16.6483657 -8.64697266 14.0078125 C-8.65709381 13.22948059 -8.66721497 12.45114868 -8.67764282 11.64923096 C-8.59968903 7.65031274 -8.15290175 5.81896654 -5.64706421 2.64013672 C-3 0.625 -3 0.625 0 0 Z " fill="#222222" transform="translate(416,39.375)"/>
<path d="M0 0 C1.06226807 0.64904297 2.12453613 1.29808594 3.21899414 1.96679688 C8.85253896 4.76593962 14.31246758 4.57542013 20.49609375 4.53125 C22.27827049 4.53699036 22.27827049 4.53699036 24.09645081 4.54284668 C26.60019787 4.5455594 29.10397358 4.53824334 31.60766602 4.52148438 C35.42203544 4.50008675 39.23451722 4.52130035 43.04882812 4.546875 C45.48958746 4.54423124 47.93034563 4.53910528 50.37109375 4.53125 C51.50260361 4.53934692 52.63411346 4.54744385 53.7999115 4.55578613 C60.88564602 4.47264993 65.72458182 3.32619046 72 0 C72 4.29 72 8.58 72 13 C70.98421875 13.07476562 69.9684375 13.14953125 68.921875 13.2265625 C55.606675 14.41060505 46.2960774 18.29318928 36.48046875 27.65625 C33.99123949 30.00827765 31.41608195 32.16406608 28.75 34.3125 C23.1969194 38.80860219 17.77315606 43.4437771 12.359375 48.10546875 C11.54049805 48.80808838 11.54049805 48.80808838 10.70507812 49.52490234 C9.49287796 50.57360129 8.28930795 51.63231224 7.09179688 52.69775391 C6.46853516 53.24737793 5.84527344 53.79700195 5.203125 54.36328125 C4.63754883 54.86770752 4.07197266 55.37213379 3.48925781 55.8918457 C2 57 2 57 0 57 C0 47.76 0 38.52 0 29 C13.25 28.75 13.25 28.75 17.41113281 28.70214844 C18.49749023 28.6715332 19.58384766 28.64091797 20.703125 28.609375 C21.81333008 28.58842773 22.92353516 28.56748047 24.06738281 28.54589844 C27.62701748 27.88328246 28.82795061 26.85073387 31 24 C31.66666667 21 31.66666667 21 31 18 C28.82795061 15.14926613 27.62701748 14.11671754 24.06738281 13.45410156 C22.95717773 13.4331543 21.84697266 13.41220703 20.703125 13.390625 C19.49785156 13.35839844 18.29257813 13.32617188 17.05078125 13.29296875 C15.79652344 13.27878906 14.54226562 13.26460938 13.25 13.25 C11.98027344 13.22035156 10.71054688 13.19070313 9.40234375 13.16015625 C6.26857164 13.08946966 3.1342815 13.04246994 0 13 C0 8.71 0 4.42 0 0 Z " fill="#4369A8" transform="translate(232,315)"/>
<path d="M0 0 C17.18557928 -0.09272596 34.37105815 -0.16404482 51.55683041 -0.20724869 C59.53707857 -0.22784514 67.51716812 -0.25590961 75.49731445 -0.30175781 C82.45548426 -0.3417153 89.41353915 -0.36745401 96.37182051 -0.37635398 C100.0538157 -0.38155374 103.73548224 -0.39371335 107.41737175 -0.42292023 C111.5348231 -0.45531516 115.65170862 -0.45595372 119.76928711 -0.45410156 C121.58622322 -0.47567322 121.58622322 -0.47567322 123.43986511 -0.49768066 C130.34766355 -0.46411005 136.14295641 0.08308068 142 4 C144.5625 6.75 144.5625 6.75 146 9 C144.94147355 8.99585193 144.94147355 8.99585193 143.86156273 8.99162006 C126.68505618 8.92534646 109.50858214 8.87571273 92.33197594 8.84456348 C84.02546978 8.82909928 75.71904901 8.80801833 67.41259766 8.77368164 C60.17209078 8.74376557 52.93164575 8.72442174 45.69107878 8.71773452 C41.85778054 8.71382598 38.0246592 8.7046498 34.19141769 8.68280983 C30.58156116 8.66240971 26.971954 8.65617326 23.36204529 8.66067696 C21.40939144 8.65946135 19.45676459 8.64333765 17.50418091 8.6267395 C11.47259332 8.64801041 7.11630821 8.69724416 2 12 C1.34 12 0.68 12 0 12 C0 8.04 0 4.08 0 0 Z " fill="#D5DFE9" transform="translate(320,24)"/>
<path d="M0 0 C2.05364273 0.97595123 2.05364273 0.97595123 4.14877319 1.97161865 C10.65400406 4.55627375 16.69419734 4.53469678 23.61962891 4.45410156 C24.96098802 4.45297081 26.30234959 4.45361138 27.64370728 4.45587158 C31.25479191 4.45701082 34.86533601 4.43363148 38.47629595 4.40557575 C42.26121754 4.38042876 46.04615399 4.37820969 49.83114624 4.37347412 C56.98495703 4.36108314 64.13852087 4.32831464 71.29222333 4.28807616 C79.44220472 4.24323705 87.59219842 4.22134102 95.74227262 4.20129442 C112.49499255 4.15957807 129.24746467 4.0893023 146 4 C142.12766039 9.10748242 138.32671484 11.73982871 132 13 C130.17093378 13.08813252 128.33893893 13.12199519 126.50775146 13.12025452 C125.39158447 13.12162918 124.27541748 13.12300385 123.12542725 13.12442017 C121.90551086 13.12082489 120.68559448 13.11722961 119.42871094 13.11352539 C117.49662781 13.11374443 117.49662781 13.11374443 115.5255127 13.1139679 C111.99692251 13.11425477 108.46836633 13.10837583 104.93978405 13.10139394 C101.25089376 13.09514207 97.56200268 13.09455515 93.87310791 13.09336853 C86.88920485 13.09026063 79.90531745 13.08205451 72.92142129 13.07201904 C64.96984958 13.06084113 57.01827712 13.05534322 49.0666995 13.05032361 C32.71112358 13.03987146 16.35556441 13.022081 0 13 C0 8.71 0 4.42 0 0 Z " fill="#D5DFE9" transform="translate(320,475)"/>
<path d="M0 0 C0.57307501 3.20922004 0.85720356 4.92222668 0 8 C-1.92567444 9.87840271 -1.92567444 9.87840271 -4.46508789 11.72827148 C-9.76501217 15.76205424 -14.47172217 20.14940092 -19.18359375 24.84765625 C-20.00577896 25.66318466 -20.82796417 26.47871307 -21.67506409 27.31895447 C-23.39429282 29.02814054 -25.11089833 30.73996905 -26.82495117 32.4543457 C-29.44482903 35.0698167 -32.08034474 37.66882807 -34.71679688 40.26757812 C-36.39420622 41.93912426 -38.07067229 43.61161763 -39.74609375 45.28515625 C-40.53044296 46.05513443 -41.31479218 46.82511261 -42.12290955 47.61842346 C-47.35318394 52.89288829 -50.50981397 57.00848518 -51.4375 64.5625 C-50.74878117 69.97386222 -48.30814069 72.87024213 -44.25 76.375 C-43.5075 76.91125 -42.765 77.4475 -42 78 C-49.45839262 78.44750356 -55.89465008 78.75877381 -62 74 C-64.52433891 71.47083444 -66.80891363 68.82102371 -69 66 C-65.68374563 58.07378764 -57.33176468 52.18741316 -50.9296875 46.7109375 C-48.15892418 44.25426881 -45.597071 41.60640023 -43 38.96875 C-40.43694772 36.44574541 -37.72654176 34.12437183 -35 31.78125 C-32.91662922 29.9257479 -30.95718793 27.98776899 -29 26 C-26.44009866 23.40017817 -23.8322046 20.93731602 -21.0625 18.5625 C-18.04925207 15.97465178 -15.22723019 13.26505704 -12.4375 10.4375 C-2.12510702 0 -2.12510702 0 0 0 Z " fill="#4368A6" transform="translate(304,410)"/>
<path d="M0 0 C0.8245166 -0.00478363 1.6490332 -0.00956726 2.49853516 -0.01449585 C4.23667313 -0.01788872 5.97487544 -0.00872903 7.71289062 0.01220703 C10.36733825 0.03898521 13.01755825 0.01244254 15.671875 -0.01953125 C17.36459263 -0.01622704 19.05730763 -0.00982056 20.75 0 C21.93456787 -0.01518173 21.93456787 -0.01518173 23.14306641 -0.03067017 C27.35331444 0.05848655 28.94435394 0.32614833 32.375 3.01806641 C34.375 5.6640625 34.375 5.6640625 35 8.6640625 C34.14258491 12.77965492 32.6700365 14.0785529 29.375 16.6640625 C26.4937396 17.38167245 23.70823382 17.3660385 20.75 17.328125 C19.5132251 17.33530045 19.5132251 17.33530045 18.25146484 17.34262085 C16.51332687 17.34601372 14.77512456 17.33685403 13.03710938 17.31591797 C10.38266175 17.28913979 7.73244175 17.31568246 5.078125 17.34765625 C3.38540737 17.34435204 1.69269237 17.33794556 0 17.328125 C-0.78971191 17.33824615 -1.57942383 17.34836731 -2.39306641 17.35879517 C-6.60331444 17.26963845 -8.19435394 17.00197667 -11.625 14.31005859 C-13.625 11.6640625 -13.625 11.6640625 -14.25 8.6640625 C-12.6040416 0.76346216 -6.91215509 -0.08858799 0 0 Z " fill="#222222" transform="translate(373.625,327.3359375)"/>
<path d="M0 0 C1.78090027 0.00848969 1.78090027 0.00848969 3.59777832 0.01715088 C7.36768931 0.03943491 11.13662913 0.08961915 14.90625 0.140625 C17.47134038 0.16070018 20.03644575 0.17894916 22.6015625 0.1953125 C28.87016247 0.239274 35.13804191 0.30824863 41.40625 0.390625 C41.40625 4.680625 41.40625 8.970625 41.40625 13.390625 C40.18534668 12.74085693 38.96444336 12.09108887 37.70654297 11.42163086 C31.70607539 8.76936892 26.07657925 8.83112425 19.6015625 8.89453125 C18.40062958 8.89307602 17.19969666 8.89162079 15.96237183 8.89012146 C13.43940794 8.89177365 10.91643326 8.90325803 8.39355469 8.92407227 C4.52235547 8.95319191 0.65251317 8.94463309 -3.21875 8.93164062 C-5.67448584 8.93787356 -8.13021737 8.946261 -10.5859375 8.95703125 C-11.74527802 8.95409561 -12.90461853 8.95115997 -14.09909058 8.94813538 C-15.70688889 8.96716164 -15.70688889 8.96716164 -17.34716797 8.98657227 C-18.76206009 8.99467674 -18.76206009 8.99467674 -20.20553589 9.00294495 C-22.98507338 9.45414873 -23.86926504 10.22084154 -25.59375 12.390625 C-26.25375 12.060625 -26.91375 11.730625 -27.59375 11.390625 C-26.60816465 10.2941613 -25.60419494 9.21422275 -24.59375 8.140625 C-24.036875 7.53734375 -23.48 6.9340625 -22.90625 6.3125 C-15.57760546 0.22180217 -9.20987009 -0.1668042 0 0 Z " fill="#4369A8" transform="translate(262.59375,23.609375)"/>
<path d="M0 0 C2.64 0 5.28 0 8 0 C8.07476562 0.94359375 8.14953125 1.8871875 8.2265625 2.859375 C9.41184112 14.43327207 12.61432432 22.76790541 20 32 C13.4 32 6.8 32 0 32 C0 21.44 0 10.88 0 0 Z " fill="#446AA9" transform="translate(344,264)"/>
<path d="M0 0 C4.00390625 2.63671875 4.00390625 2.63671875 8.0078125 5.2734375 C13.51687622 8.45229672 18.5904958 9.33269748 24.875 9.625 C25.90753906 9.68300781 25.90753906 9.68300781 26.9609375 9.7421875 C28.64023246 9.83548166 30.32007767 9.91878238 32 10 C32 12.64 32 15.28 32 18 C21.44 18 10.88 18 0 18 C0 12.06 0 6.12 0 0 Z " fill="#446AA9" transform="translate(344,198)"/>
</svg>
